# xmcd CD database file
#
# Track frame offsets:
#	187
#	13455
#	24065
#	35300
#	49177
#	61792
#	72327
#	84622
#	96555
#	110922
#
# Disc length: 1617 seconds
#
# Revision: 0
# Processed by: cddbd v1.5.2PL0 Copyright (c) Steve Scherf et al.
# Submitted via: CDex 1.51
#
DISCID=85064f0a
DTITLE=Carl Perkins - Take Me Back
DYEAR=1993
DGENRE=Country
TTITLE0=Take me Back
TTITLE1=What Am I Living For
TTITLE2=Standing In The Need Of Love
TTITLE3=I Want You Back Again
TTITLE4=We Did In '54
TTITLE5=Born To Boogie
TTITLE6=Sing A Song With Me
TTITLE7=Don't Ever Get Off (Gettin' It On With Me)
TTITLE8=Country Soul
TTITLE9=I Can Feel It
EXTD=YEAR: 1993
EXTT0=
EXTT1=
EXTT2=
EXTT3=
EXTT4=
EXTT5=
EXTT6=
EXTT7=
EXTT8=
EXTT9=
PLAYORDER=
